<svg version="1.1"

	 xmlns="http://www.w3.org/2000/svg" xmlns:xlink="http://www.w3.org/1999/xlink"

	 x="0px" y="0px" width="160px" height="235px" viewBox="0 0 160 235" style="enable-background:new 0 0 160 235;"

	 xml:space="preserve">

<style type="text/css">

	.st0{fill:#009582;}

	.st1{fill:#0D66AA;}

	.st2{fill:#BAC8E6;}

	.st3{fill:#FFFFFF;}

</style>

<defs>

</defs>

<g id="XMLID_109_">

	<path id="XMLID_293_" class="st0" d="M0,235V83.8h160V235H0z"/>

	<path id="XMLID_291_" class="st1" d="M0,161.3V0h160v161.3H0z"/>

	<g id="XMLID_284_">

		<path id="XMLID_290_" class="st2" d="M41,79.9c-1.6-1-5.9-3.6-6.9-4.6c-1.3-1.2-2.1-3.3-1.4-6H9.9v10.6H41z"/>

		<g id="XMLID_288_">

			<path id="XMLID_289_" class="st2" d="M70.6,75.4c-1.5,0.9-8.4,4.4-8.4,4.4h11c0-0.6,1.1-1.8,1.1-1.8

				C71.2,78.2,70.6,75.4,70.6,75.4z"/>

		</g>

		<g id="XMLID_286_">

			<path id="XMLID_287_" class="st2" d="M91.3,75.4c0.9,0.7,7,4.4,7,4.4H87.6c0-0.6-0.7-1.9-0.7-1.9C90.2,78.4,91.3,75.4,91.3,75.4z

				"/>

		</g>

		<path id="XMLID_285_" class="st2" d="M119.9,79.9c0,0,6.8-3.5,8.3-4.8c1.3-1.1,3.2-3.6,2.5-5.9h19.6v10.6H119.9z"/>

	</g>

	<g id="XMLID_241_">

		<g id="XMLID_278_">

			<g id="XMLID_281_">

				<path id="XMLID_283_" class="st3" d="M57.7,36.4c2.8,0,5.4-2.3,5.8-5.1c0.4-2.8-1.6-5.1-4.4-5.1c-2.8,0-5.4,2.3-5.8,5.1

					C52.9,34.1,54.9,36.4,57.7,36.4z"/>

				<path id="XMLID_282_" class="st3" d="M58.4,31.3"/>

			</g>

			<path id="XMLID_280_" class="st3" d="M44.6,36.7"/>

			<path id="XMLID_279_" class="st3" d="M57.3,39l11.1-6.2c1.1-0.6,2-0.8,2.9-0.8c2.6,0,4.5,2.1,4.1,4.8c-0.2,1.6-1.2,3-2.6,3.9

				l-8.4,4.7c0,0-1.1,8-1.7,12.1c-0.2,1.2-1.8,1.9-2.8,1.4c-1.7-1-5-3.1-5-3.1s-3.9,2.1-5.8,3.1c-1.1,0.6-2.6-0.2-2.4-1.4

				c0.6-4.1,1.7-12.1,1.7-12.1l-7-4.7c-1.1-0.9-1.7-2.3-1.5-3.9c0.4-2.6,2.8-4.8,5.4-4.8c0.9,0,1.8,0.2,2.4,0.7L57.3,39z"/>

		</g>

		<g id="XMLID_272_">

			<g id="XMLID_275_">

				<path id="XMLID_277_" class="st3" d="M88.8,19.8c2.8,0,5.4-2.3,5.8-5.1c0.4-2.8-1.6-5.1-4.4-5.1c-2.8,0-5.4,2.3-5.8,5.1

					C84,17.5,86,19.8,88.8,19.8z"/>

				<path id="XMLID_276_" class="st3" d="M89.5,14.7"/>

			</g>

			<path id="XMLID_274_" class="st3" d="M75.7,20.1"/>

			<path id="XMLID_273_" class="st3" d="M88.4,22.3l11.1-6.2c1.1-0.6,2-0.8,2.9-0.8c2.6,0,4.5,2.1,4.1,4.8c-0.2,1.6-1.2,3-2.6,3.9

				l-8.4,4.7c0,0-1.1,8-1.7,12.1C93.7,42,92,42.7,91,42.1c-1.7-1-5-3.1-5-3.1s-3.9,2.1-5.8,3.1c-1.1,0.6-2.6-0.2-2.4-1.4

				c0.6-4.1,1.7-12.1,1.7-12.1l-7-4.7c-1.1-0.9-1.7-2.3-1.5-3.9c0.4-2.6,2.8-4.8,5.4-4.8c0.9,0,1.8,0.2,2.4,0.7L88.4,22.3z"/>

		</g>

		<g id="XMLID_266_">

			<g id="XMLID_269_">

				<path id="XMLID_271_" class="st3" d="M115.1,36.4c2.8,0,5.4-2.3,5.8-5.1c0.4-2.8-1.6-5.1-4.4-5.1c-2.8,0-5.4,2.3-5.8,5.1

					C110.4,34.1,112.3,36.4,115.1,36.4z"/>

				<path id="XMLID_270_" class="st3" d="M115.9,31.3"/>

			</g>

			<path id="XMLID_268_" class="st3" d="M102,36.7"/>

			<path id="XMLID_267_" class="st3" d="M114.7,39l11.1-6.2c1.1-0.6,2-0.8,2.9-0.8c2.6,0,4.5,2.1,4.1,4.8c-0.2,1.6-1.2,3-2.6,3.9

				l-8.4,4.7c0,0-1.1,8-1.7,12.1c-0.2,1.2-1.8,1.9-2.8,1.4c-1.7-1-5-3.1-5-3.1s-3.9,2.1-5.8,3.1c-1.1,0.6-2.6-0.2-2.4-1.4

				c0.6-4.1,1.7-12.1,1.7-12.1l-7-4.7c-1.1-0.9-1.7-2.3-1.5-3.9c0.4-2.6,2.8-4.8,5.4-4.8c0.9,0,1.8,0.2,2.4,0.7L114.7,39z"/>

		</g>

		<g id="XMLID_260_">

			<g id="XMLID_263_">

				<path id="XMLID_265_" class="st3" d="M110.3,70c2.8,0,5.4-2.3,5.8-5.1c0.4-2.8-1.6-5.1-4.4-5.1c-2.8,0-5.4,2.3-5.8,5.1

					C105.6,67.8,107.5,70,110.3,70z"/>

				<path id="XMLID_264_" class="st3" d="M111,65"/>

			</g>

			<path id="XMLID_262_" class="st3" d="M97.2,70.3"/>

			<path id="XMLID_261_" class="st3" d="M109.9,72.6l11.1-6.2c1.1-0.6,2-0.8,2.9-0.8c2.6,0,4.5,2.1,4.1,4.8c-0.2,1.6-1.2,3-2.6,3.9

				l-8.4,4.7c0,0-1.1,8-1.7,12.1c-0.2,1.2-1.8,1.9-2.8,1.4c-1.7-1-5-3.1-5-3.1s-3.9,2.1-5.8,3.1c-1.1,0.6-2.6-0.2-2.4-1.4

				C99.9,86.9,101,79,101,79l-7-4.7c-1.1-0.9-1.7-2.3-1.5-3.9c0.4-2.6,2.8-4.8,5.4-4.8c0.9,0,1.8,0.2,2.4,0.7L109.9,72.6z"/>

		</g>

		<g id="XMLID_254_">

			<g id="XMLID_257_">

				<path id="XMLID_259_" class="st3" d="M84.1,53.2c2.8,0,5.4-2.3,5.8-5.1c0.4-2.8-1.6-5.1-4.4-5.1c-2.8,0-5.4,2.3-5.8,5.1

					C79.3,51,81.3,53.2,84.1,53.2z"/>

				<path id="XMLID_258_" class="st3" d="M84.8,48.2"/>

			</g>

			<path id="XMLID_256_" class="st3" d="M71,53.5"/>

			<path id="XMLID_255_" class="st3" d="M83.7,55.8l11.1-6.2c1.1-0.6,2-0.8,2.9-0.8c2.6,0,4.5,2.1,4.1,4.8c-0.2,1.6-1.2,3-2.6,3.9

				l-8.4,4.7c0,0-1.1,8-1.7,12.1c-0.2,1.2-1.8,1.9-2.8,1.4c-1.7-1-5-3.1-5-3.1s-3.9,2.1-5.8,3.1c-1.1,0.6-2.6-0.2-2.4-1.4

				c0.6-4.1,1.7-12.1,1.7-12.1l-7-4.7c-1.1-0.9-1.7-2.3-1.5-3.9c0.4-2.6,2.8-4.8,5.4-4.8c0.9,0,1.8,0.2,2.4,0.7L83.7,55.8z"/>

		</g>

		<g id="XMLID_248_">

			<g id="XMLID_251_">

				<path id="XMLID_253_" class="st3" d="M79.4,86.7c2.8,0,5.4-2.3,5.8-5.1c0.4-2.8-1.6-5.1-4.4-5.1c-2.8,0-5.4,2.3-5.8,5.1

					C74.7,84.4,76.6,86.7,79.4,86.7z"/>

				<path id="XMLID_252_" class="st3" d="M80.1,81.6"/>

			</g>

			<path id="XMLID_250_" class="st3" d="M66.3,87"/>

			<path id="XMLID_249_" class="st3" d="M79,89.2L90.1,83c1.1-0.6,2-0.8,2.9-0.8c2.6,0,4.5,2.1,4.1,4.8c-0.2,1.6-1.2,3-2.6,3.9

				l-8.4,4.7c0,0-1.1,8-1.7,12.1c-0.2,1.2-1.8,1.9-2.8,1.4c-1.7-1-5-3.1-5-3.1s-3.9,2.1-5.8,3.1c-1.1,0.6-2.6-0.2-2.4-1.4

				c0.6-4.1,1.7-12.1,1.7-12.1l-7-4.7c-1.1-0.9-1.7-2.3-1.5-3.9c0.4-2.6,2.8-4.8,5.4-4.8c0.9,0,1.8,0.2,2.4,0.7L79,89.2z"/>

		</g>

		<g id="XMLID_242_">

			<g id="XMLID_245_">

				<path id="XMLID_247_" class="st3" d="M53,69.9c2.8,0,5.4-2.3,5.8-5.1c0.4-2.8-1.6-5.1-4.4-5.1c-2.8,0-5.4,2.3-5.8,5.1

					C48.2,67.6,50.2,69.9,53,69.9z"/>

				<path id="XMLID_246_" class="st3" d="M53.7,64.8"/>

			</g>

			<path id="XMLID_244_" class="st3" d="M39.9,70.2"/>

			<path id="XMLID_243_" class="st3" d="M52.6,72.4l11.1-6.2c1.1-0.6,2-0.8,2.9-0.8c2.6,0,4.5,2.1,4.1,4.8c-0.2,1.6-1.2,3-2.6,3.9

				l-8.4,4.7c0,0-1.1,8-1.7,12.1c-0.2,1.2-1.8,1.9-2.8,1.4c-1.7-1-5-3.1-5-3.1s-3.9,2.1-5.8,3.1c-1.1,0.6-2.6-0.2-2.4-1.4

				c0.6-4.1,1.7-12.1,1.7-12.1l-7-4.7c-1.1-0.9-1.7-2.3-1.5-3.9c0.4-2.6,2.8-4.8,5.4-4.8c0.9,0,1.8,0.2,2.4,0.7L52.6,72.4z"/>

		</g>

	</g>

	<path id="XMLID_238_" class="st3" d="M17.7,126.7l2.6-4.4l0.8,4.4H17.7z M21.4,127.8c0.3,1.3,0.4,2.6,0.6,4c0.6,0,1.1-0.1,1.6-0.1

		c0.5,0,1.1,0.1,1.6,0.1l-2.7-13.1c-0.3,0-0.5,0.1-0.7,0.1c-0.2,0-0.5,0-0.7-0.1l-7.9,13.1c0.3,0,0.6-0.1,0.9-0.1

		c0.3,0,0.6,0,0.9,0.1c0.6-1.3,1.3-2.5,2.1-3.9H21.4z"/>

	<path id="XMLID_236_" class="st3" d="M30.1,130.3c1.6,0,3.1-0.1,4.4-0.3c-0.1,0.3-0.2,0.5-0.3,0.8c-0.1,0.3,0,0.5-0.1,0.8H27

		l2.5-12.8c0.5,0,0.9,0.1,1.4,0.1c0.5,0,1-0.1,1.4-0.1L30.1,130.3z"/>

	<path id="XMLID_234_" class="st3" d="M39.5,130.3c1.6,0,3.1-0.1,4.4-0.3c-0.1,0.3-0.2,0.5-0.3,0.8c-0.1,0.3,0,0.5-0.1,0.8h-7.1

		l2.5-12.8c0.5,0,0.9,0.1,1.4,0.1c0.5,0,1-0.1,1.4-0.1L39.5,130.3z"/>

	<path id="XMLID_231_" class="st3" d="M54.6,119.6c2.8,0,3.4,2.8,2.9,5.2c-0.6,3.1-2.5,6-5.4,6c-2.8,0-3.4-2.6-3-5

		C50,121.6,52,119.6,54.6,119.6z M60.6,125.2c0.5-2.9-0.3-6.7-5.7-6.7c-4.7,0-8,3-8.7,6.8c-0.8,4.3,1.5,6.7,5.7,6.7

		C56.5,132,59.9,128.9,60.6,125.2z"/>

	<path id="XMLID_229_" class="st3" d="M72.1,129.6l-0.7,1.6c-1.2,0.6-2.6,0.8-3.9,0.8c-4,0-6.6-2.5-5.8-6.3c1-4.9,4.8-7.2,8.9-7.2

		c1.2,0,2.7,0.3,3.7,0.9c-0.3,0.6-0.5,1.3-0.8,1.9h-0.3c-0.5-1-1.6-1.7-2.8-1.7c-3.1,0-5,3-5.5,5.8c-0.6,3.2,0.5,5.5,3.4,5.5

		c1.2,0,2.6-0.6,3.6-1.4L72.1,129.6z"/>

	<path id="XMLID_226_" class="st3" d="M77.4,126.7l2.6-4.4l0.8,4.4H77.4z M81.1,127.8c0.3,1.3,0.4,2.6,0.6,4c0.6,0,1.1-0.1,1.6-0.1

		c0.5,0,1.1,0.1,1.6,0.1l-2.7-13.1c-0.3,0-0.5,0.1-0.7,0.1c-0.2,0-0.5,0-0.7-0.1l-7.9,13.1c0.3,0,0.6-0.1,0.9-0.1

		c0.3,0,0.6,0,0.9,0.1c0.6-1.3,1.3-2.5,2.1-3.9H81.1z"/>

	<path id="XMLID_224_" class="st3" d="M91.8,131.8c-0.5,0-0.9-0.1-1.4-0.1c-0.5,0-0.9,0.1-1.4,0.1l2.3-11.6c-1.3,0-2.6,0.1-3.6,0.3

		c0.1-0.3,0.2-0.5,0.3-0.8c0.1-0.3,0-0.5,0.1-0.8h9.7c-0.1,0.3-0.2,0.5-0.2,0.8c-0.1,0.3-0.1,0.6-0.1,0.8c-1.1-0.1-2.2-0.3-3.3-0.3

		L91.8,131.8z"/>

	<path id="XMLID_220_" class="st3" d="M99.8,118.8c0.5,0,0.9,0.1,1.4,0.1c0.5,0,1-0.1,1.4-0.1l-2.5,12.9c-0.5,0-0.9-0.1-1.4-0.1

		c-0.5,0-0.9,0.1-1.4,0.1L99.8,118.8z"/>

	<path id="XMLID_215_" class="st3" d="M112.2,119.6c2.8,0,3.4,2.8,2.9,5.2c-0.6,3.1-2.5,6-5.4,6c-2.8,0-3.4-2.6-3-5

		C107.6,121.6,109.6,119.6,112.2,119.6z M118.2,125.2c0.5-2.9-0.3-6.7-5.7-6.7c-4.7,0-8,3-8.7,6.8c-0.8,4.3,1.5,6.7,5.7,6.7

		C114.1,132,117.5,128.9,118.2,125.2z"/>

	<path id="XMLID_212_" class="st3" d="M121.7,118.8h1.9c2.1,2.9,4.4,5.8,6.4,8.8l1.7-8.8c0.2,0,0.5,0.1,0.7,0.1c0.2,0,0.5,0,0.8-0.1

		l-2.5,12.9l-1.6,0c-1.7-2.4-3.3-4.8-5-7l-1.6-2.1l-1.8,9.1c-0.2,0-0.5-0.1-0.7-0.1c-0.2,0-0.5,0-0.8,0.1L121.7,118.8z"/>

	<path id="XMLID_209_" class="st3" d="M141.6,121.3c-0.2-1-0.8-1.6-1.8-1.6c-1.5,0-2.2,0.8-2.4,1.9c-0.5,2.5,5.3,2.1,4.5,6.4

		c-0.5,2.4-2.9,4.1-5.8,4.1c-1,0-2.1-0.2-2.9-0.8c0.4-0.8,0.7-1.6,1-2.4h0.4c0,1.3,0.9,2.1,2.2,2.1c1.2,0,2.3-0.7,2.6-2

		c0.6-3-5.2-1.9-4.4-6.5c0.4-2.2,2.3-4,5.1-4c1.4,0,2.5,0.5,2.8,0.9c-0.3,0.6-0.7,1.2-1,1.9H141.6z"/>

	<path id="XMLID_206_" class="st3" d="M29,150.8c-0.5,0-0.9-0.1-1.4-0.1c-0.5,0-1,0.1-1.4,0.1l2.5-12.9h7.2

		c-0.1,0.3-0.2,0.5-0.3,0.8c-0.1,0.3,0,0.5-0.1,0.8c-1.1-0.1-2.3-0.3-4.3-0.3l-0.8,4.1h2c0.7,0,1.5-0.1,2.3-0.2

		c-0.1,0.3-0.2,0.5-0.3,0.8c-0.1,0.3,0,0.5-0.1,0.8c-0.8-0.1-1.5-0.2-2.3-0.2h-2L29,150.8z"/>

	<path id="XMLID_201_" class="st3" d="M39,145.7l2.6-4.4l0.8,4.4H39z M42.6,146.9c0.3,1.3,0.4,2.6,0.6,4c0.6,0,1.1-0.1,1.6-0.1

		c0.5,0,1.1,0.1,1.6,0.1l-2.7-13.1c-0.3,0-0.5,0.1-0.7,0.1c-0.2,0-0.5,0-0.7-0.1l-7.9,13.1c0.3,0,0.6-0.1,0.9-0.1

		c0.3,0,0.6,0,0.9,0.1c0.6-1.3,1.3-2.5,2.1-3.9H42.6z"/>

	<path id="XMLID_198_" class="st3" d="M62.1,137.9c0.3,0,0.5,0.1,0.8,0.1c0.3,0,0.6-0.1,0.8-0.1c-0.4,5.1-0.8,9.2-0.9,12.9

		c-0.5,0-1-0.1-1.5-0.1c-0.5,0-1,0.1-1.5,0.1c0.4-3,0.6-5.9,0.9-8.8c-2,2.9-4,5.8-5.9,8.7c-0.2,0-0.5-0.1-0.7,0

		c-0.7-2.6-1.6-5.5-2.5-8.5c-1.1,3.3-1.9,5.9-2.5,8.6c-0.3,0-0.6-0.1-0.9-0.1c-0.3,0-0.6,0.1-0.9,0.1c1.4-3.8,2.9-8.2,4.4-12.9

		c0.3,0,0.5,0.1,0.8,0.1c0.3,0,0.5-0.1,0.8-0.1c0.8,3,1.7,5.9,2.6,8.9C57.8,144.1,60,141.1,62.1,137.9z"/>

	<path id="XMLID_195_" class="st3" d="M67.7,137.9c0.5,0,0.9,0.1,1.4,0.1c0.5,0,1-0.1,1.4-0.1L68,150.8c-0.5,0-0.9-0.1-1.4-0.1

		c-0.5,0-1,0.1-1.4,0.1L67.7,137.9z"/>

	<path id="XMLID_192_" class="st3" d="M74.3,149.4c1.6,0,3.1-0.1,4.4-0.3c-0.1,0.3-0.2,0.5-0.3,0.8c-0.1,0.3,0,0.5-0.1,0.8h-7.1

		l2.5-12.8c0.5,0,0.9,0.1,1.4,0.1c0.5,0,1-0.1,1.4-0.1L74.3,149.4z"/>

	<path id="XMLID_189_" class="st3" d="M83.4,137.9c0.5,0,0.9,0.1,1.4,0.1c0.5,0,1-0.1,1.4-0.1l-2.5,12.9c-0.5,0-0.9-0.1-1.4-0.1

		c-0.5,0-1,0.1-1.4,0.1L83.4,137.9z"/>

	<path id="XMLID_185_" class="st3" d="M90.3,145.7l2.6-4.4l0.8,4.4H90.3z M93.9,146.9c0.3,1.3,0.4,2.6,0.6,4c0.6,0,1.1-0.1,1.6-0.1

		c0.5,0,1.1,0.1,1.6,0.1L95,137.7c-0.2,0-0.5,0.1-0.7,0.1c-0.2,0-0.5,0-0.7-0.1l-7.9,13.1c0.3,0,0.6-0.1,0.9-0.1

		c0.3,0,0.6,0,0.9,0.1c0.6-1.3,1.3-2.5,2.1-3.9H93.9z"/>

	<path id="XMLID_182_" class="st3" d="M102.6,149.4c1.6,0,3.1-0.1,4.4-0.3c-0.1,0.3-0.2,0.5-0.3,0.8c-0.1,0.3,0,0.5-0.1,0.8h-7.1

		l2.5-12.8c0.5,0,0.9,0.1,1.4,0.1c0.5,0,0.9-0.1,1.4-0.1L102.6,149.4z"/>

	<path id="XMLID_179_" class="st3" d="M118.6,137.9c-0.1,0.3-0.2,0.5-0.3,0.8c0,0.3,0,0.5-0.1,0.8c-1.1-0.2-2.4-0.3-4.3-0.3

		l-0.8,4.1h2c0.8,0,1.6-0.1,2.4-0.2c-0.1,0.3-0.2,0.5-0.3,0.8c-0.1,0.3,0,0.5-0.1,0.8c-0.7-0.1-1.4-0.2-2.3-0.2h-2l-0.9,4.8

		c1.9,0,3.2-0.1,4.4-0.3c-0.1,0.3-0.2,0.5-0.3,0.8c-0.1,0.3-0.1,0.5-0.1,0.8h-7.2l2.5-12.8H118.6z"/>

	<path id="XMLID_176_" class="st3" d="M126.2,140.3c-0.2-1-0.8-1.6-1.8-1.6c-1.5,0-2.2,0.8-2.4,1.8c-0.5,2.5,5.3,2.1,4.5,6.4

		c-0.5,2.4-2.9,4.1-5.8,4.1c-1,0-2.1-0.2-2.9-0.8c0.4-0.8,0.7-1.6,1-2.4h0.4c0,1.3,0.9,2.1,2.2,2.1c1.2,0,2.3-0.7,2.6-2

		c0.6-3-5.2-1.9-4.4-6.5c0.4-2.2,2.3-4,5.1-4c1.4,0,2.5,0.5,2.8,0.9c-0.3,0.6-0.7,1.2-1,1.9H126.2z"/>

	<g id="XMLID_111_">

		<path id="XMLID_173_" class="st3" d="M76.3,189.2l-0.7,2.7c-1.9,1-4.1,1.4-6.2,1.4c-6.7,0-11.8-4.2-11.8-10.6

			c0-8.2,5.7-12,12.5-12c2.1,0,4.6,0.5,6.4,1.5c-0.3,1.1-0.5,2.1-0.7,3.2h-0.4c-1.2-1.7-3.2-2.9-5.2-2.9c-5.2,0-7.3,5-7.3,9.6

			c0,5.4,2.6,9.2,7.5,9.2c1.9,0,4.2-1,5.6-2.4L76.3,189.2z"/>

		<path id="XMLID_167_" class="st3" d="M91.3,190.1c0,1.2,0.3,1.5,1.6,1.5v0.7c-0.8,0.3-1.9,0.8-2.8,0.8c-1.5,0-2.6-0.9-3.1-2.3

			c-0.8,1.4-2.4,2.3-4,2.3c-2.6,0-4.5-1.4-4.5-4.2c0-3,1.8-3.9,5.7-4.8c0.8-0.2,1.6-0.4,2.3-0.8c0.4-0.3,0.5-0.8,0.5-1.2

			c0-1.5-1.5-2.8-3-2.8c-2,0-3.6,1.4-3.8,1.9H80l-0.4-1.9c1.5-1.4,3.8-2.1,5.8-2.1c2.6,0,6,1.1,6,4.2V190.1z M87,184.7

			c-0.8,0.3-2.2,0.6-3.1,1.4c-0.8,0.7-1,1.6-1,2.6c0,1.2,0.4,2.5,1.7,2.5c1.9,0,2.3-1.9,2.4-3.4V184.7z"/>

		<path id="XMLID_163_" class="st3" d="M93.7,179.6c0.1-0.7,0.1-1.3,0-2H96c0.2-1.7,0.7-3.6,1.6-5.2c1.5-2.8,3.3-3.8,6.5-3.3

			c-0.2,1.3-0.2,2.8-0.1,4l-0.4,0.2c-0.8-0.4-1.9-0.9-2.8-0.9c-0.5,0-1.3,0-1.7,0.4c-0.2,0.2-0.4,0.3-0.4,0.7c0,0.9,1,3.2,1.4,4.2

			h3.2c-0.1,0.8-0.1,1.3,0,2h-3v13.2c-0.7-0.1-1.4-0.2-2.2-0.2c-0.7,0-1.4,0.1-2.2,0.2v-13.2H93.7z"/>

		<path id="XMLID_158_" class="st3" d="M29.1,216.4c-0.4,0-0.9-0.1-1.3-0.1c-0.5,0-0.9,0.1-1.4,0.1v-1.8c-0.4,1.2-1.4,2-2.8,2

			c-3,0-4-2.5-4-5.1c0-2.6,1.2-5.2,3.9-5.2c1.2,0,2.2,0.4,2.8,1.5v-6.9c0.5,0,0.9,0.1,1.4,0.1c0.5,0,0.9-0.1,1.4-0.1V216.4z

			 M22.6,211.5c0,1.2,0.1,3.7,1.8,3.7c1.8,0,2-2.7,2-4c0-1.2-0.2-3.7-1.8-3.7C22.8,207.7,22.6,210.3,22.6,211.5z"/>

		<path id="XMLID_153_" class="st3" d="M34,211.5c-0.1,2.1,0.7,3.8,2.8,3.8c0.8,0,1.8-0.4,2.4-0.9l0.2,0.2l-0.4,1.1

			c-0.8,0.6-1.9,0.9-2.9,0.9c-3.4,0-5.1-2-5.1-5.4c0-2.9,1.7-4.9,4.7-4.9c3.2,0,4.4,2.2,4.2,5.2H34z M37.1,210.5

			c0-1.1-0.1-3.3-1.3-3.3c-1.5,0-1.6,2.2-1.7,3.3H37.1z"/>

		<path id="XMLID_150_" class="st3" d="M50.4,216.4c-0.5,0-0.9-0.1-1.4-0.1c-0.5,0-0.9,0.1-1.4,0.1v-15.5c0.5,0,0.9,0.1,1.4,0.1

			c0.5,0,0.9-0.1,1.4-0.1V216.4z"/>

		<path id="XMLID_144_" class="st3" d="M60.7,214.6c0,0.8,0.2,1,1,1v0.5c-0.5,0.2-1.3,0.6-1.8,0.6c-1,0-1.7-0.6-2-1.5

			c-0.5,0.9-1.6,1.5-2.6,1.5c-1.7,0-2.9-0.9-2.9-2.7c0-1.9,1.2-2.5,3.7-3.1c0.5-0.1,1-0.2,1.5-0.5c0.2-0.2,0.3-0.5,0.3-0.8

			c0-1-1-1.8-1.9-1.8c-1.3,0-2.4,0.9-2.5,1.3h-0.1l-0.3-1.2c1-0.9,2.5-1.4,3.8-1.4c1.7,0,3.9,0.7,3.9,2.7V214.6z M57.9,211.1

			c-0.5,0.2-1.4,0.4-2,0.9c-0.5,0.4-0.7,1-0.7,1.7c0,0.8,0.2,1.6,1.1,1.6c1.2,0,1.5-1.2,1.6-2.2V211.1z"/>

		<path id="XMLID_141_" class="st3" d="M82.2,215.8c-1.8,0.5-3.7,0.9-5.5,0.9c-4.3,0-8.1-2.2-8.1-7c0-5.1,3.7-7.7,8.4-7.7

			c1.8,0,3.4,0.4,4.9,1.2c-0.3,0.7-0.5,1.4-0.6,2.1h-0.3c-0.9-1.4-2.4-2.1-4-2.1c-3.4,0-5.1,3.1-5.1,6.5c0,3.6,1.8,5.7,4.9,5.7

			c1,0,1.8-0.3,2.2-0.6v-4.8c0.5,0,1,0.1,1.5,0.1c0.5,0,1-0.1,1.5-0.1V215.8z"/>

		<path id="XMLID_135_" class="st3" d="M86.4,201.2c0.9,0,1.6,0.7,1.6,1.6c0,0.9-0.8,1.6-1.6,1.6c-0.9,0-1.6-0.8-1.6-1.6

			S85.6,201.2,86.4,201.2z M85.1,206.5c0.5,0,0.9,0.1,1.4,0.1c0.5,0,0.9-0.1,1.4-0.1v9.9c-0.5,0-0.9-0.1-1.4-0.1

			c-0.5,0-0.9,0.1-1.4,0.1V206.5z"/>

		<path id="XMLID_131_" class="st3" d="M90.7,206.5c0.5,0,0.9,0.1,1.4,0.1s0.9-0.1,1.4-0.1v2.5c0.4-1.5,1.3-2.7,3.3-2.7

			c-0.1,1-0.2,1.9-0.1,2.8l-0.2,0.2c-0.3-0.2-0.7-0.3-1-0.3c-0.9,0-1.6,0.5-1.9,1.3c-0.2,0.6-0.1,1.7-0.1,2.4v3.7

			c-0.5,0-0.9-0.1-1.4-0.1s-0.9,0.1-1.4,0.1V206.5z"/>

		<path id="XMLID_126_" class="st3" d="M97.6,211.7c0-3.2,1.9-5.4,5-5.4c3.1,0,5,1.9,5,4.9c0,3.1-1.8,5.4-5,5.4

			C99.5,216.6,97.6,214.7,97.6,211.7z M100.6,211.6c0,1.3,0.2,4.1,1.9,4.1c1.6,0,2-2.5,2-4.8c0-2-0.5-3.7-1.9-3.7

			C101,207.2,100.6,209.2,100.6,211.6z"/>

		<path id="XMLID_122_" class="st3" d="M109.4,206.5c0.4,0,0.9,0.1,1.4,0.1c0.4,0,0.9-0.1,1.3-0.1v1.5c0.8-1,1.9-1.7,3.1-1.7

			c2.6,0,3.2,1.7,3.2,4.1v6c-0.5,0-0.9-0.1-1.4-0.1c-0.5,0-0.9,0.1-1.4,0.1v-5.1c0-1.9-0.2-3.3-1.7-3.3c-1.8,0-1.8,2.4-1.8,3.7v4.7

			c-0.5,0-0.9-0.1-1.4-0.1s-0.9,0.1-1.4,0.1V206.5z"/>

		<path id="XMLID_117_" class="st3" d="M129.8,216.4c-0.4,0-0.9-0.1-1.3-0.1c-0.5,0-0.9,0.1-1.4,0.1v-1.8c-0.4,1.2-1.4,2-2.8,2

			c-3,0-4-2.5-4-5.1c0-2.6,1.2-5.2,3.9-5.2c1.2,0,2.2,0.4,2.8,1.5v-6.9c0.5,0,0.9,0.1,1.4,0.1c0.5,0,0.9-0.1,1.4-0.1V216.4z

			 M123.2,211.5c0,1.2,0.1,3.7,1.8,3.7c1.8,0,2-2.7,2-4c0-1.2-0.2-3.7-1.8-3.7C123.4,207.7,123.2,210.3,123.2,211.5z"/>

		<path id="XMLID_112_" class="st3" d="M134.7,211.5c-0.1,2.1,0.7,3.8,2.8,3.8c0.8,0,1.8-0.4,2.4-0.9l0.2,0.2l-0.4,1.1

			c-0.8,0.6-1.9,0.9-2.9,0.9c-3.4,0-5.1-2-5.1-5.4c0-2.9,1.7-4.9,4.7-4.9c3.2,0,4.4,2.2,4.2,5.2H134.7z M137.7,210.5

			c0-1.1-0.1-3.3-1.3-3.3c-1.5,0-1.6,2.2-1.7,3.3H137.7z"/>

	</g>

</g>

</svg>